<svg version="1.1" xmlns="http://www.w3.org/2000/svg" viewBox="0 0 1823.7910466269811 1700.2142857142849" width="1823.7910466269811" height="1700.2142857142849">
  <!-- svg-source:excalidraw -->
  
  <defs>
    <style class="style-fonts">
      @font-face {
        font-family: "Virgil";
        src: url("https://excalidraw.com/Virgil.woff2");
      }
      @font-face {
        font-family: "Cascadia";
        src: url("https://excalidraw.com/Cascadia.woff2");
      }
      @font-face {
        font-family: "Assistant";
        src: url("https://excalidraw.com/Assistant-Regular.woff2");
      }
    </style>
    
  </defs>
  <rect x="0" y="0" width="1823.7910466269811" height="1700.2142857142849" fill="#ffffff"></rect><g stroke-linecap="round" transform="translate(10 1057.3174603174568) rotate(0 199.3515625 182.5)"><path d="M0 0 C111.21 1.12, 220.85 1.58, 398.7 0 M0 0 C154.81 1.14, 309.34 1.33, 398.7 0 M398.7 0 C398.65 79.33, 399.72 160.34, 398.7 365 M398.7 0 C400.54 89.74, 400.46 178.88, 398.7 365 M398.7 365 C271.23 365.22, 145.6 365.67, 0 365 M398.7 365 C296.63 362.95, 194.94 363.2, 0 365 M0 365 C0.69 262.01, -0.97 158.64, 0 0 M0 365 C1.48 253.69, 2.31 141.91, 0 0" stroke="#1e1e1e" stroke-width="2" fill="none"></path></g><g stroke-linecap="round" transform="translate(437.75669642857133 366.81746031745683) rotate(0 252.6015625 281.5)"><path d="M0 0 C127.43 0.26, 256.45 -0.46, 505.2 0 M0 0 C115.9 1.46, 231.5 1.79, 505.2 0 M505.2 0 C503.75 156.93, 503.19 314.19, 505.2 563 M505.2 0 C503.72 113.9, 504.06 228.04, 505.2 563 M505.2 563 C350.05 563.42, 193.67 562.61, 0 563 M505.2 563 C396.31 562.62, 287.77 562.61, 0 563 M0 563 C-2.34 383.66, -1.95 203.2, 0 0 M0 563 C1.99 428.06, 1.51 293.21, 0 0" stroke="#1e1e1e" stroke-width="2" fill="none"></path></g><g stroke-linecap="round" transform="translate(714.8816964285713 1038.8174603174568) rotate(0 139.1015625 199)"><path d="M0 0 C86.17 -1.67, 168.55 -0.62, 278.2 0 M0 0 C60.19 1.28, 121.47 0.46, 278.2 0 M278.2 0 C277.92 99.25, 277.43 195.72, 278.2 398 M278.2 0 C276.8 142.05, 276.74 282.75, 278.2 398 M278.2 398 C192.98 398.02, 107.82 398.01, 0 398 M278.2 398 C200.94 398.59, 124.08 399.13, 0 398 M0 398 C1.07 266.35, 0.32 135.77, 0 0 M0 398 C-1.6 265.38, -0.98 132.73, 0 0" stroke="#1e1e1e" stroke-width="2" fill="none"></path></g><g stroke-linecap="round" transform="translate(1210.1026785714284 1314.2460317460277) rotate(0 91.765625 83.5)"><path d="M0 0 C61.98 1.29, 125.16 0.76, 183.53 0 M0 0 C46.28 -1.36, 92.47 -0.51, 183.53 0 M183.53 0 C180.66 53.5, 183.72 107.84, 183.53 167 M183.53 0 C183.91 52.19, 183.87 105.99, 183.53 167 M183.53 167 C118.91 164.75, 57.24 164.9, 0 167 M183.53 167 C124.79 168.22, 65.95 166.89, 0 167 M0 167 C-1.3 110.96, 0.57 59.14, 0 0 M0 167 C1.54 118.4, 0.81 68.94, 0 0" stroke="#1e1e1e" stroke-width="2" fill="none"></path></g><g stroke-linecap="round" transform="translate(1003.9196428571433 74.31746031745706) rotate(0 91.765625 80.71428571428567)"><path d="M0 0 C58.31 -1.55, 119.21 -0.36, 183.53 0 M0 0 C42.48 -0.83, 85.37 -1.26, 183.53 0 M183.53 0 C184.74 40.08, 186.26 79.58, 183.53 161.43 M183.53 0 C184.02 39.26, 183.01 78.57, 183.53 161.43 M183.53 161.43 C139.73 160.14, 95.45 160.86, 0 161.43 M183.53 161.43 C112.52 160.67, 40.12 160.01, 0 161.43 M0 161.43 C-0.71 124.37, -0.46 90.84, 0 0 M0 161.43 C1 111.76, 0.65 62.87, 0 0" stroke="#1e1e1e" stroke-width="2" fill="none"></path></g><g stroke-linecap="round"><g transform="translate(10 1098.3174603174568) rotate(0 199.3515625 0)"><path d="M0 0 C118.53 1.59, 235.43 1.23, 398.7 0 M0 0 C126.18 0.69, 250.98 1.57, 398.7 0" stroke="#000" stroke-width="1" fill="none"></path></g></g><mask></mask><g stroke-linecap="round"><g transform="translate(10 1246.3174603174568) rotate(0 199.3515625 0)"><path d="M0 0 C86.59 -0.12, 174.95 0.8, 398.7 0 M0 0 C97.34 2.53, 194.91 2.31, 398.7 0" stroke="#000" stroke-width="1" fill="none"></path></g></g><mask></mask><g stroke-linecap="round"><g transform="translate(437.75669642857133 407.81746031745683) rotate(0 252.6015625 0)"><path d="M0 0 C140.74 1.29, 280.81 1.84, 505.2 0 M0 0 C101.89 -1.06, 204.37 -0.76, 505.2 0" stroke="#000" stroke-width="1" fill="none"></path></g></g><mask></mask><g stroke-linecap="round"><g transform="translate(437.75669642857133 687.8174603174568) rotate(0 252.6015625 0)"><path d="M0 0 C124.17 0.22, 248.43 -0.97, 505.2 0 M0 0 C179.72 0.05, 359.33 -0.53, 505.2 0" stroke="#000" stroke-width="1" fill="none"></path></g></g><mask></mask><g stroke-linecap="round"><g transform="translate(714.8816964285713 1079.8174603174568) rotate(0 139.1015625 0)"><path d="M0 0 C89.43 -2.87, 182.72 -3.06, 278.2 0 M0 0 C87.9 -2.37, 175.7 -1.55, 278.2 0" stroke="#000" stroke-width="1" fill="none"></path></g></g><mask></mask><g stroke-linecap="round"><g transform="translate(714.8816964285713 1293.8174603174568) rotate(0 139.1015625 0)"><path d="M0 0 C110.85 0.14, 220.23 1.44, 278.2 0 M0 0 C108.92 1.57, 218.11 0.81, 278.2 0" stroke="#000" stroke-width="1" fill="none"></path></g></g><mask></mask><g stroke-linecap="round"><g transform="translate(1210.1026785714284 1388.2460317460277) rotate(0 91.765625 0)"><path d="M0 0 C45.46 1.58, 92.13 1.38, 183.53 0 M0 0 C45.58 -1.43, 89.71 -1.83, 183.53 0" stroke="#000" stroke-width="1" fill="none"></path></g></g><mask></mask><g stroke-linecap="round"><g transform="translate(1210.1026785714284 1470.2460317460277) rotate(0 91.765625 0)"><path d="M0 0 C44.71 -0.17, 84.69 -0.26, 183.53 0 M0 0 C64.3 -0.03, 129.19 0.6, 183.53 0" stroke="#000" stroke-width="1" fill="none"></path></g></g><mask></mask><g stroke-linecap="round"><g transform="translate(1002.491071428572 148.31746031745706) rotate(0 91.765625 0)"><path d="M0 0 C54.87 -1.95, 109.84 -1.97, 183.53 0 M0 0 C50.72 -0.21, 101.96 0.5, 183.53 0" stroke="#000" stroke-width="1" fill="none"></path></g></g><mask></mask><g mask="url(#mask-cXhwaSELfglG_iBfnYOkV)" stroke-linecap="round"><g transform="translate(440.4154104863644 927.4853771457738) rotate(0 -102.80297601331426 64.67194668262073)"><path d="M-0.71 -0.27 C-34.96 21.5, -172.04 107.96, -206.22 129.6 M1.12 -1.46 C-32.67 20.01, -169.2 105.53, -203.84 127.61" stroke="#1e1e1e" stroke-width="2" fill="none"></path></g></g><mask id="mask-cXhwaSELfglG_iBfnYOkV"><rect x="0" y="0" fill="#fff" width="746.0213625129929" height="1156.8292705110152"></rect><rect x="300.92102822305014" y="982.9573238283945" fill="#000" width="73.3828125" height="18.4" opacity="1"></rect></mask><g mask="url(#mask-usaSK7sys3g36MTFNFTv3)" stroke-linecap="round"><g transform="translate(826.1548398885008 930.8174603174568) rotate(0 12.888235610066886 53.75)"><path d="M-0.62 0.25 C3.76 18.25, 21.14 89.67, 25.57 107.72 M1.26 -0.66 C5.52 16.98, 20.5 87.8, 24.52 105.71" stroke="#1e1e1e" stroke-width="2" fill="none"></path></g></g><mask id="mask-usaSK7sys3g36MTFNFTv3"><rect x="0" y="0" fill="#fff" width="951.9313111086345" height="1138.3174603174568"></rect><rect x="794.7930754985676" y="975.3674603174568" fill="#000" width="88.5" height="18.4" opacity="1"></rect></mask><g mask="url(#mask-fM62Slgu-3MuGop3ttfIq)" stroke-linecap="round"><g transform="translate(941.9598214285713 620.4718749024116) rotate(0 112.74088541666629 -47.7730654019756)"><path d="M-0.2 0.22 C37.52 -15.57, 188.04 -78.44, 225.71 -94.49 M-1.77 -0.71 C35.87 -16.84, 187.05 -80.33, 224.88 -96.05" stroke="#1e1e1e" stroke-width="2" fill="none"></path></g></g><mask id="mask-fM62Slgu-3MuGop3ttfIq"><rect x="0" y="0" fill="#fff" width="1267.441592261904" height="816.0180057063628"></rect><rect x="1034.9077380952376" y="563.498809500436" fill="#000" width="39.5859375" height="18.4" opacity="1"></rect></mask><g transform="translate(161.0703125 1062.3174603174568) rotate(0 36.689453125 11.5)"><text x="0" y="0" font-family="Helvetica, Segoe UI Emoji" font-size="20px" fill="#1e1e1e" text-anchor="start" style="white-space: pre;" direction="ltr" dominant-baseline="text-before-edge">Supplier</text></g><g transform="translate(17.5 1107.3174603174568) rotate(0 74.2236328125 11.5)"><text x="0" y="0" font-family="Helvetica, Segoe UI Emoji" font-size="20px" fill="#1e1e1e" text-anchor="start" style="white-space: pre;" direction="ltr" dominant-baseline="text-before-edge">+Long supplierId</text></g><g transform="translate(17.5 1140.3174603174568) rotate(0 59.755859375 11.5)"><text x="0" y="0" font-family="Helvetica, Segoe UI Emoji" font-size="20px" fill="#1e1e1e" text-anchor="start" style="white-space: pre;" direction="ltr" dominant-baseline="text-before-edge">+String name</text></g><g transform="translate(17.5 1173.3174603174568) rotate(0 67.5341796875 11.5)"><text x="0" y="0" font-family="Helvetica, Segoe UI Emoji" font-size="20px" fill="#1e1e1e" text-anchor="start" style="white-space: pre;" direction="ltr" dominant-baseline="text-before-edge">+String country</text></g><g transform="translate(17.5 1206.3174603174568) rotate(0 119.23828125 11.5)"><text x="0" y="0" font-family="Helvetica, Segoe UI Emoji" font-size="20px" fill="#1e1e1e" text-anchor="start" style="white-space: pre;" direction="ltr" dominant-baseline="text-before-edge">+List&lt;Product&gt; productList</text></g><g transform="translate(17.5 1251.3174603174568) rotate(0 151.4697265625 11.5)"><text x="0" y="0" font-family="Helvetica, Segoe UI Emoji" font-size="20px" fill="#1e1e1e" text-anchor="start" style="white-space: pre;" direction="ltr" dominant-baseline="text-before-edge">+createSupplier(Supplier supplier)</text></g><g transform="translate(17.5 1284.3174603174568) rotate(0 134.7998046875 11.5)"><text x="0" y="0" font-family="Helvetica, Segoe UI Emoji" font-size="20px" fill="#1e1e1e" text-anchor="start" style="white-space: pre;" direction="ltr" dominant-baseline="text-before-edge">+List~Supplier~ getSuppliers()</text></g><g transform="translate(17.5 1317.3174603174568) rotate(0 139.7998046875 11.5)"><text x="0" y="0" font-family="Helvetica, Segoe UI Emoji" font-size="20px" fill="#1e1e1e" text-anchor="start" style="white-space: pre;" direction="ltr" dominant-baseline="text-before-edge">+editSupplier(Supplier supplier)</text></g><g transform="translate(17.5 1350.3174603174568) rotate(0 137.587890625 11.5)"><text x="0" y="0" font-family="Helvetica, Segoe UI Emoji" font-size="20px" fill="#1e1e1e" text-anchor="start" style="white-space: pre;" direction="ltr" dominant-baseline="text-before-edge">+Supplier findSupplier(Long id)</text></g><g transform="translate(17.5 1383.3174603174568) rotate(0 109.2431640625 11.5)"><text x="0" y="0" font-family="Helvetica, Segoe UI Emoji" font-size="20px" fill="#1e1e1e" text-anchor="start" style="white-space: pre;" direction="ltr" dominant-baseline="text-before-edge">+deleteSupplier(Long id)</text></g><g transform="translate(644.6082589285713 371.81746031745683) rotate(0 34.462890625 11.5)"><text x="0" y="0" font-family="Helvetica, Segoe UI Emoji" font-size="20px" fill="#1e1e1e" text-anchor="start" style="white-space: pre;" direction="ltr" dominant-baseline="text-before-edge">Product</text></g><g transform="translate(445.25669642857133 416.81746031745683) rotate(0 72.55859375 11.5)"><text x="0" y="0" font-family="Helvetica, Segoe UI Emoji" font-size="20px" fill="#1e1e1e" text-anchor="start" style="white-space: pre;" direction="ltr" dominant-baseline="text-before-edge">+Long productId</text></g><g transform="translate(445.25669642857133 449.81746031745683) rotate(0 83.1005859375 11.5)"><text x="0" y="0" font-family="Helvetica, Segoe UI Emoji" font-size="20px" fill="#1e1e1e" text-anchor="start" style="white-space: pre;" direction="ltr" dominant-baseline="text-before-edge">+String description</text></g><g transform="translate(445.25669642857133 482.81746031745683) rotate(0 60.322265625 11.5)"><text x="0" y="0" font-family="Helvetica, Segoe UI Emoji" font-size="20px" fill="#1e1e1e" text-anchor="start" style="white-space: pre;" direction="ltr" dominant-baseline="text-before-edge">+double price</text></g><g transform="translate(445.25669642857133 515.8174603174568) rotate(0 88.1103515625 11.5)"><text x="0" y="0" font-family="Helvetica, Segoe UI Emoji" font-size="20px" fill="#1e1e1e" text-anchor="start" style="white-space: pre;" direction="ltr" dominant-baseline="text-before-edge">+ProductState state</text></g><g transform="translate(445.25669642857133 548.8174603174568) rotate(0 123.1298828125 11.5)"><text x="0" y="0" font-family="Helvetica, Segoe UI Emoji" font-size="20px" fill="#1e1e1e" text-anchor="start" style="white-space: pre;" direction="ltr" dominant-baseline="text-before-edge">+List&lt;Supplier&gt; supplierList</text></g><g transform="translate(445.25669642857133 581.8174603174568) rotate(0 143.134765625 11.5)"><text x="0" y="0" font-family="Helvetica, Segoe UI Emoji" font-size="20px" fill="#1e1e1e" text-anchor="start" style="white-space: pre;" direction="ltr" dominant-baseline="text-before-edge">+PriceReduction priceReduction</text></g><g transform="translate(445.25669642857133 614.8174603174568) rotate(0 86.4404296875 11.5)"><text x="0" y="0" font-family="Helvetica, Segoe UI Emoji" font-size="20px" fill="#1e1e1e" text-anchor="start" style="white-space: pre;" direction="ltr" dominant-baseline="text-before-edge">+Date creationDate</text></g><g transform="translate(445.25669642857133 647.8174603174568) rotate(0 49.1845703125 11.5)"><text x="0" y="0" font-family="Helvetica, Segoe UI Emoji" font-size="20px" fill="#1e1e1e" text-anchor="start" style="white-space: pre;" direction="ltr" dominant-baseline="text-before-edge">+User user</text></g><g transform="translate(445.25669642857133 692.8174603174568) rotate(0 145.3515625 11.5)"><text x="0" y="0" font-family="Helvetica, Segoe UI Emoji" font-size="20px" fill="#1e1e1e" text-anchor="start" style="white-space: pre;" direction="ltr" dominant-baseline="text-before-edge">+createProduct(Product product)</text></g><g transform="translate(445.25669642857133 725.8174603174568) rotate(0 151.2744140625 11.5)"><text x="0" y="0" font-family="Helvetica, Segoe UI Emoji" font-size="20px" fill="#1e1e1e" text-anchor="start" style="white-space: pre;" direction="ltr" dominant-baseline="text-before-edge">+List~ProductDTO~ getProducts()</text></g><g transform="translate(445.25669642857133 758.8174603174568) rotate(0 107.0166015625 11.5)"><text x="0" y="0" font-family="Helvetica, Segoe UI Emoji" font-size="20px" fill="#1e1e1e" text-anchor="start" style="white-space: pre;" direction="ltr" dominant-baseline="text-before-edge">+deleteProduct(Long id)</text></g><g transform="translate(445.25669642857133 791.8174603174568) rotate(0 133.134765625 11.5)"><text x="0" y="0" font-family="Helvetica, Segoe UI Emoji" font-size="20px" fill="#1e1e1e" text-anchor="start" style="white-space: pre;" direction="ltr" dominant-baseline="text-before-edge">+Product findProduct(Long id)</text></g><g transform="translate(445.25669642857133 824.8174603174568) rotate(0 133.681640625 11.5)"><text x="0" y="0" font-family="Helvetica, Segoe UI Emoji" font-size="20px" fill="#1e1e1e" text-anchor="start" style="white-space: pre;" direction="ltr" dominant-baseline="text-before-edge">+editProduct(Product product)</text></g><g transform="translate(445.25669642857133 857.8174603174568) rotate(0 195.390625 11.5)"><text x="0" y="0" font-family="Helvetica, Segoe UI Emoji" font-size="20px" fill="#1e1e1e" text-anchor="start" style="white-space: pre;" direction="ltr" dominant-baseline="text-before-edge">+desactivateProduct(Long id, String reason)</text></g><g transform="translate(445.25669642857133 890.8174603174568) rotate(0 142.5537109375 11.5)"><text x="0" y="0" font-family="Helvetica, Segoe UI Emoji" font-size="20px" fill="#1e1e1e" text-anchor="start" style="white-space: pre;" direction="ltr" dominant-baseline="text-before-edge">+String getNameFromRequest()</text></g><g transform="translate(827.6004464285713 1043.8174603174568) rotate(0 21.11328125 11.5)"><text x="0" y="0" font-family="Helvetica, Segoe UI Emoji" font-size="20px" fill="#1e1e1e" text-anchor="start" style="white-space: pre;" direction="ltr" dominant-baseline="text-before-edge">User</text></g><g transform="translate(722.3816964285713 1088.8174603174568) rotate(0 79.208984375 11.5)"><text x="0" y="0" font-family="Helvetica, Segoe UI Emoji" font-size="20px" fill="#1e1e1e" text-anchor="start" style="white-space: pre;" direction="ltr" dominant-baseline="text-before-edge">+String username</text></g><g transform="translate(722.3816964285713 1121.8174603174568) rotate(0 77.5390625 11.5)"><text x="0" y="0" font-family="Helvetica, Segoe UI Emoji" font-size="20px" fill="#1e1e1e" text-anchor="start" style="white-space: pre;" direction="ltr" dominant-baseline="text-before-edge">+String password</text></g><g transform="translate(722.3816964285713 1154.8174603174568) rotate(0 75.8642578125 11.5)"><text x="0" y="0" font-family="Helvetica, Segoe UI Emoji" font-size="20px" fill="#1e1e1e" text-anchor="start" style="white-space: pre;" direction="ltr" dominant-baseline="text-before-edge">+String firstname</text></g><g transform="translate(722.3816964285713 1187.8174603174568) rotate(0 75.3173828125 11.5)"><text x="0" y="0" font-family="Helvetica, Segoe UI Emoji" font-size="20px" fill="#1e1e1e" text-anchor="start" style="white-space: pre;" direction="ltr" dominant-baseline="text-before-edge">+String lastname</text></g><g transform="translate(722.3816964285713 1220.8174603174568) rotate(0 67.5341796875 11.5)"><text x="0" y="0" font-family="Helvetica, Segoe UI Emoji" font-size="20px" fill="#1e1e1e" text-anchor="start" style="white-space: pre;" direction="ltr" dominant-baseline="text-before-edge">+String country</text></g><g transform="translate(722.3816964285713 1253.8174603174568) rotate(0 45.859375 11.5)"><text x="0" y="0" font-family="Helvetica, Segoe UI Emoji" font-size="20px" fill="#1e1e1e" text-anchor="start" style="white-space: pre;" direction="ltr" dominant-baseline="text-before-edge">+Role role</text></g><g transform="translate(722.3816964285713 1298.8174603174568) rotate(0 104.7509765625 11.5)"><text x="0" y="0" font-family="Helvetica, Segoe UI Emoji" font-size="20px" fill="#1e1e1e" text-anchor="start" style="white-space: pre;" direction="ltr" dominant-baseline="text-before-edge">+createUser(User user)</text></g><g transform="translate(722.3816964285713 1331.8174603174568) rotate(0 103.6474609375 11.5)"><text x="0" y="0" font-family="Helvetica, Segoe UI Emoji" font-size="20px" fill="#1e1e1e" text-anchor="start" style="white-space: pre;" direction="ltr" dominant-baseline="text-before-edge">+List~User~ getUsers()</text></g><g transform="translate(722.3816964285713 1364.8174603174568) rotate(0 93.6669921875 11.5)"><text x="0" y="0" font-family="Helvetica, Segoe UI Emoji" font-size="20px" fill="#1e1e1e" text-anchor="start" style="white-space: pre;" direction="ltr" dominant-baseline="text-before-edge">+deleteUser(Long id)</text></g><g transform="translate(722.3816964285713 1397.8174603174568) rotate(0 106.435546875 11.5)"><text x="0" y="0" font-family="Helvetica, Segoe UI Emoji" font-size="20px" fill="#1e1e1e" text-anchor="start" style="white-space: pre;" direction="ltr" dominant-baseline="text-before-edge">+User findUser(Long id)</text></g><g transform="translate(1217.6026785714284 1319.2460317460277) rotate(0 66.7138671875 11.5)"><text x="0" y="0" font-family="Helvetica, Segoe UI Emoji" font-size="20px" fill="#1e1e1e" text-anchor="start" style="white-space: pre;" direction="ltr" dominant-baseline="text-before-edge">«enumeration»</text></g><g transform="translate(1276.2823660714284 1352.2460317460277) rotate(0 20.56640625 11.5)"><text x="0" y="0" font-family="Helvetica, Segoe UI Emoji" font-size="20px" fill="#1e1e1e" text-anchor="start" style="white-space: pre;" direction="ltr" dominant-baseline="text-before-edge">Role</text></g><g transform="translate(1217.6026785714284 1397.2460317460277) rotate(0 32.2216796875 11.5)"><text x="0" y="0" font-family="Helvetica, Segoe UI Emoji" font-size="20px" fill="#1e1e1e" text-anchor="start" style="white-space: pre;" direction="ltr" dominant-baseline="text-before-edge">ADMIN</text></g><g transform="translate(1217.6026785714284 1430.2460317460277) rotate(0 27.783203125 11.5)"><text x="0" y="0" font-family="Helvetica, Segoe UI Emoji" font-size="20px" fill="#1e1e1e" text-anchor="start" style="white-space: pre;" direction="ltr" dominant-baseline="text-before-edge">USER</text></g><g transform="translate(1009.991071428572 79.31746031745706) rotate(0 66.7138671875 11.5)"><text x="0" y="0" font-family="Helvetica, Segoe UI Emoji" font-size="20px" fill="#1e1e1e" text-anchor="start" style="white-space: pre;" direction="ltr" dominant-baseline="text-before-edge">«enumeration»</text></g><g transform="translate(1018.358258928572 112.31746031745706) rotate(0 57.8125 11.5)"><text x="0" y="0" font-family="Helvetica, Segoe UI Emoji" font-size="20px" fill="#1e1e1e" text-anchor="start" style="white-space: pre;" direction="ltr" dominant-baseline="text-before-edge">ProductState</text></g><g transform="translate(1009.991071428572 157.31746031745706) rotate(0 36.1181640625 11.5)"><text x="0" y="0" font-family="Helvetica, Segoe UI Emoji" font-size="20px" fill="#1e1e1e" text-anchor="start" style="white-space: pre;" direction="ltr" dominant-baseline="text-before-edge">ACTIVE</text></g><g transform="translate(1009.991071428572 190.31746031745706) rotate(0 76.11328125 11.5)"><text x="0" y="0" font-family="Helvetica, Segoe UI Emoji" font-size="20px" fill="#1e1e1e" text-anchor="start" style="white-space: pre;" direction="ltr" dominant-baseline="text-before-edge">DISCONTINUED</text></g><g transform="translate(378.0225714285714 936.0674603174568) rotate(0 3.11328125 9.199999999999989)"><text x="0" y="0" font-family="Helvetica, Segoe UI Emoji" font-size="16px" fill="#1e1e1e" text-anchor="start" style="white-space: pre;" direction="ltr" dominant-baseline="text-before-edge">*</text></g><g transform="translate(265.5305714285712 1000.3174603174568) rotate(0 3.11328125 9.199999999999989)"><text x="0" y="0" font-family="Helvetica, Segoe UI Emoji" font-size="16px" fill="#1e1e1e" text-anchor="start" style="white-space: pre;" direction="ltr" dominant-baseline="text-before-edge">*</text></g><g transform="translate(811.1755714285713 952.3174603174568) rotate(0 3.11328125 9.199999999999989)"><text x="0" y="0" font-family="Helvetica, Segoe UI Emoji" font-size="16px" fill="#1e1e1e" text-anchor="start" style="white-space: pre;" direction="ltr" dominant-baseline="text-before-edge">*</text></g><g transform="translate(871.4835714285713 1008.8174603174568) rotate(0 4.44921875 9.199999999999989)"><text x="0" y="0" font-family="Helvetica, Segoe UI Emoji" font-size="16px" fill="#1e1e1e" text-anchor="start" style="white-space: pre;" direction="ltr" dominant-baseline="text-before-edge">1</text></g><g transform="translate(995.3741930132296 566.3924049343516) rotate(0 4.44921875 9.200000000000045)"><text x="0" y="0" font-family="Helvetica, Segoe UI Emoji" font-size="16px" fill="#1e1e1e" text-anchor="start" style="white-space: pre;" direction="ltr" dominant-baseline="text-before-edge">1</text></g><g transform="translate(300.92102822305014 982.9573238283945) rotate(0 36.9421001607505 8.595765840304125)"><text x="36.69140625" y="0" font-family="Helvetica, Segoe UI Emoji" font-size="16px" fill="#1e1e1e" text-anchor="middle" style="white-space: pre;" direction="ltr" dominant-baseline="text-before-edge">contains &gt;</text></g><g transform="translate(794.7930754985676 975.3674603174568) rotate(0 43.8393483839929 8.979524043989443)"><text x="44.25" y="0" font-family="Helvetica, Segoe UI Emoji" font-size="16px" fill="#1e1e1e" text-anchor="middle" style="white-space: pre;" direction="ltr" dominant-baseline="text-before-edge">created by &gt;</text></g><g transform="translate(1034.9077380952376 563.498809500436) rotate(0 19.022549527916127 9.056152548533873)"><text x="19.79296875" y="0" font-family="Helvetica, Segoe UI Emoji" font-size="16px" fill="#1e1e1e" text-anchor="middle" style="white-space: pre;" direction="ltr" dominant-baseline="text-before-edge">has &gt;</text></g><g transform="translate(924.0429067460304 256.1666666666665) rotate(0 7.2216796875 11.5)"><text x="0" y="0" font-family="Helvetica, Segoe UI Emoji" font-size="20px" fill="#1e1e1e" text-anchor="start" style="white-space: pre;" direction="ltr" dominant-baseline="text-before-edge">is</text></g><g transform="translate(1105.9223444460172 567.6947932939336) rotate(0 5.5615234375 11.5)"><text x="0" y="0" font-family="Helvetica, Segoe UI Emoji" font-size="20px" fill="#1e1e1e" text-anchor="start" style="white-space: pre;" direction="ltr" dominant-baseline="text-before-edge">1</text></g><g transform="translate(1073.471478174602 1263.880952380952) rotate(0 21.6796875 11.5)"><text x="0" y="0" font-family="Helvetica, Segoe UI Emoji" font-size="20px" fill="#1e1e1e" text-anchor="start" style="white-space: pre;" direction="ltr" dominant-baseline="text-before-edge"> has </text></g><g transform="translate(1038.9122812432593 1251.3829136500399) rotate(0 5.5615234375 11.5)"><text x="0" y="0" font-family="Helvetica, Segoe UI Emoji" font-size="20px" fill="#1e1e1e" text-anchor="start" style="white-space: pre;" direction="ltr" dominant-baseline="text-before-edge">1</text></g><g transform="translate(1151.1857638888875 1253.8809523809523) rotate(0 5.5615234375 11.5)"><text x="0" y="0" font-family="Helvetica, Segoe UI Emoji" font-size="20px" fill="#1e1e1e" text-anchor="start" style="white-space: pre;" direction="ltr" dominant-baseline="text-before-edge">1</text></g><g stroke-linecap="round" transform="translate(744.0650421626907 1523.2142857142849) rotate(0 123.9921875 83.5)"><path d="M0 0 C48.99 1.05, 100.85 0.21, 247.98 0 M0 0 C57 1.33, 114.89 1.22, 247.98 0 M247.98 0 C247.53 56.17, 249.32 114.71, 247.98 167 M247.98 0 C246.73 43.68, 246.68 88.65, 247.98 167 M247.98 167 C152.18 168.09, 55.51 167.54, 0 167 M247.98 167 C159.92 167.6, 70.35 168.91, 0 167 M0 167 C1.9 117.8, -0.09 73.02, 0 0 M0 167 C-0.9 120.72, -1.48 75.54, 0 0" stroke="#1e1e1e" stroke-width="2" fill="none"></path></g><g stroke-linecap="round" transform="translate(96.00142609126192 10) rotate(0 163.890625 149.5)"><path d="M0 0 C84.82 -1.56, 171.37 -0.19, 327.78 0 M0 0 C84.06 -2.51, 169.34 -1.9, 327.78 0 M327.78 0 C325.93 111.4, 325.74 223.26, 327.78 299 M327.78 0 C330.45 75.58, 329.37 150.76, 327.78 299 M327.78 299 C258.36 299.77, 185.67 297.84, 0 299 M327.78 299 C209.93 299.19, 90.73 298.51, 0 299 M0 299 C1.35 201.13, 0 102.56, 0 0 M0 299 C-1.83 198.97, -1.79 98.34, 0 0" stroke="#1e1e1e" stroke-width="2" fill="none"></path></g><g stroke-linecap="round"><g transform="translate(744.0650421626907 1564.2142857142849) rotate(0 123.9921875 0)"><path d="M0 0 C89.56 1.68, 179.36 0.85, 247.98 0 M0 0 C94.9 1.86, 190.76 1.61, 247.98 0" stroke="#000" stroke-width="1" fill="none"></path></g></g><mask></mask><g stroke-linecap="round"><g transform="translate(744.0650421626907 1679.2142857142849) rotate(0 123.9921875 0)"><path d="M0 0 C71.19 -1.18, 145.12 -3.46, 247.98 0 M0 0 C52.09 -0.21, 102.52 -0.57, 247.98 0" stroke="#000" stroke-width="1" fill="none"></path></g></g><mask></mask><g stroke-linecap="round"><g transform="translate(96.00142609126192 51) rotate(0 163.890625 0)"><path d="M0 0 C121.67 0.69, 244.21 0.62, 327.78 0 M0 0 C83.12 -1.75, 164.58 -1.79, 327.78 0" stroke="#000" stroke-width="1" fill="none"></path></g></g><mask></mask><g stroke-linecap="round"><g transform="translate(96.00142609126192 265) rotate(0 163.890625 0)"><path d="M0 0 C79.68 0.25, 161.15 2.06, 327.78 0 M0 0 C128.28 -0.78, 256.69 -0.68, 327.78 0" stroke="#000" stroke-width="1" fill="none"></path></g></g><mask></mask><g transform="translate(793.0650421626907 1528.2142857142849) rotate(0 57.8076171875 11.5)"><text x="0" y="0" font-family="Helvetica, Segoe UI Emoji" font-size="20px" fill="#1e1e1e" text-anchor="start" style="white-space: pre;" direction="ltr" dominant-baseline="text-before-edge">Desactivated</text></g><g transform="translate(751.5650421626907 1573.2142857142849) rotate(0 92.841796875 11.5)"><text x="0" y="0" font-family="Helvetica, Segoe UI Emoji" font-size="20px" fill="#1e1e1e" text-anchor="start" style="white-space: pre;" direction="ltr" dominant-baseline="text-before-edge">-Long desactivatedId</text></g><g transform="translate(751.5650421626907 1606.2142857142849) rotate(0 62.8076171875 11.5)"><text x="0" y="0" font-family="Helvetica, Segoe UI Emoji" font-size="20px" fill="#1e1e1e" text-anchor="start" style="white-space: pre;" direction="ltr" dominant-baseline="text-before-edge">-String reason</text></g><g transform="translate(751.5650421626907 1639.2142857142849) rotate(0 46.6748046875 11.5)"><text x="0" y="0" font-family="Helvetica, Segoe UI Emoji" font-size="20px" fill="#1e1e1e" text-anchor="start" style="white-space: pre;" direction="ltr" dominant-baseline="text-before-edge">-User user</text></g><g transform="translate(190.41548859126192 15) rotate(0 55.390625 11.5)"><text x="0" y="0" font-family="Helvetica, Segoe UI Emoji" font-size="20px" fill="#1e1e1e" text-anchor="start" style="white-space: pre;" direction="ltr" dominant-baseline="text-before-edge">ProductDTO</text></g><g transform="translate(103.50142609126192 60) rotate(0 70.048828125 11.5)"><text x="0" y="0" font-family="Helvetica, Segoe UI Emoji" font-size="20px" fill="#1e1e1e" text-anchor="start" style="white-space: pre;" direction="ltr" dominant-baseline="text-before-edge">-Long productId</text></g><g transform="translate(103.50142609126192 93) rotate(0 80.5908203125 11.5)"><text x="0" y="0" font-family="Helvetica, Segoe UI Emoji" font-size="20px" fill="#1e1e1e" text-anchor="start" style="white-space: pre;" direction="ltr" dominant-baseline="text-before-edge">-String description</text></g><g transform="translate(103.50142609126192 126) rotate(0 57.8125 11.5)"><text x="0" y="0" font-family="Helvetica, Segoe UI Emoji" font-size="20px" fill="#1e1e1e" text-anchor="start" style="white-space: pre;" direction="ltr" dominant-baseline="text-before-edge">-double price</text></g><g transform="translate(103.50142609126192 159) rotate(0 122.841796875 11.5)"><text x="0" y="0" font-family="Helvetica, Segoe UI Emoji" font-size="20px" fill="#1e1e1e" text-anchor="start" style="white-space: pre;" direction="ltr" dominant-baseline="text-before-edge">-Product.ProductState state</text></g><g transform="translate(103.50142609126192 192) rotate(0 83.9306640625 11.5)"><text x="0" y="0" font-family="Helvetica, Segoe UI Emoji" font-size="20px" fill="#1e1e1e" text-anchor="start" style="white-space: pre;" direction="ltr" dominant-baseline="text-before-edge">-Date creationDate</text></g><g transform="translate(103.50142609126192 225) rotate(0 63.3544921875 11.5)"><text x="0" y="0" font-family="Helvetica, Segoe UI Emoji" font-size="20px" fill="#1e1e1e" text-anchor="start" style="white-space: pre;" direction="ltr" dominant-baseline="text-before-edge">-String creator</text></g><g transform="translate(103.50142609126192 270) rotate(0 119.5849609375 11.5)"><text x="0" y="0" font-family="Helvetica, Segoe UI Emoji" font-size="20px" fill="#1e1e1e" text-anchor="start" style="white-space: pre;" direction="ltr" dominant-baseline="text-before-edge">+ProductDTO(Product pro)</text></g><g stroke-linecap="round"><g transform="translate(422.1024305555525 278.33730158729554) rotate(0 130.83333333333331 42.5)"><path d="M0.46 0.24 C43.9 14.25, 217.2 71, 260.82 85.06 M-0.75 -0.67 C43.04 14.07, 219.35 72.24, 263.09 86.63" stroke="#1e1e1e" stroke-width="2" fill="none"></path></g></g><mask></mask><g stroke-linecap="round" transform="translate(1185.5566716269811 419.83730158729577) rotate(0 314.1171875 182.5)"><path d="M0 0 C168.36 -1.19, 337.49 -1.78, 628.23 0 M0 0 C223.81 1.39, 448.32 1.29, 628.23 0 M628.23 0 C629.08 75.21, 629.53 151.1, 628.23 365 M628.23 0 C629.08 131.85, 629.26 263.38, 628.23 365 M628.23 365 C401.65 365.61, 177.06 365.47, 0 365 M628.23 365 C431.87 363.52, 235.62 363.9, 0 365 M0 365 C0.11 258.9, -1.18 154.45, 0 0 M0 365 C1.29 232.12, 1.34 100.4, 0 0" stroke="#1e1e1e" stroke-width="2" fill="none"></path></g><g stroke-linecap="round"><g transform="translate(1185.5566716269811 460.83730158729577) rotate(0 314.1171875 0)"><path d="M0 0 C220.46 -0.79, 441.49 -0.58, 628.23 0 M0 0 C154.94 -0.33, 309.19 -0.13, 628.23 0" stroke="#000" stroke-width="1" fill="none"></path></g></g><mask></mask><g stroke-linecap="round"><g transform="translate(1185.5566716269811 608.8373015872958) rotate(0 314.1171875 0)"><path d="M0 0 C196.13 1.29, 390.93 1.02, 628.23 0 M0 0 C194.99 0.5, 390.83 0.36, 628.23 0" stroke="#000" stroke-width="1" fill="none"></path></g></g><mask></mask><g transform="translate(1410.6894841269811 424.83730158729577) rotate(0 67.8125 11.5)"><text x="0" y="0" font-family="Helvetica, Segoe UI Emoji" font-size="20px" fill="#1e1e1e" text-anchor="start" style="white-space: pre;" direction="ltr" dominant-baseline="text-before-edge">PriceReduction</text></g><g transform="translate(1193.0566716269811 469.83730158729577) rotate(0 103.3984375 11.5)"><text x="0" y="0" font-family="Helvetica, Segoe UI Emoji" font-size="20px" fill="#1e1e1e" text-anchor="start" style="white-space: pre;" direction="ltr" dominant-baseline="text-before-edge">-Long priceReductionId</text></g><g transform="translate(1193.0566716269811 502.83730158729577) rotate(0 96.71875 11.5)"><text x="0" y="0" font-family="Helvetica, Segoe UI Emoji" font-size="20px" fill="#1e1e1e" text-anchor="start" style="white-space: pre;" direction="ltr" dominant-baseline="text-before-edge">-Double reducedPrice</text></g><g transform="translate(1193.0566716269811 535.8373015872958) rotate(0 67.802734375 11.5)"><text x="0" y="0" font-family="Helvetica, Segoe UI Emoji" font-size="20px" fill="#1e1e1e" text-anchor="start" style="white-space: pre;" direction="ltr" dominant-baseline="text-before-edge">-Date startDate</text></g><g transform="translate(1193.0566716269811 568.8373015872958) rotate(0 65.0390625 11.5)"><text x="0" y="0" font-family="Helvetica, Segoe UI Emoji" font-size="20px" fill="#1e1e1e" text-anchor="start" style="white-space: pre;" direction="ltr" dominant-baseline="text-before-edge">-Date endDate</text></g><g transform="translate(1193.0566716269811 613.8373015872958) rotate(0 245.400390625 11.5)"><text x="0" y="0" font-family="Helvetica, Segoe UI Emoji" font-size="20px" fill="#1e1e1e" text-anchor="start" style="white-space: pre;" direction="ltr" dominant-baseline="text-before-edge">+createPriceReduction(PriceReduction priceReduction)</text></g><g transform="translate(1193.0566716269811 646.8373015872958) rotate(0 123.1103515625 11.5)"><text x="0" y="0" font-family="Helvetica, Segoe UI Emoji" font-size="20px" fill="#1e1e1e" text-anchor="start" style="white-space: pre;" direction="ltr" dominant-baseline="text-before-edge">+getPriceReductions() : List</text></g><g transform="translate(1193.0566716269811 679.8373015872958) rotate(0 140.3662109375 11.5)"><text x="0" y="0" font-family="Helvetica, Segoe UI Emoji" font-size="20px" fill="#1e1e1e" text-anchor="start" style="white-space: pre;" direction="ltr" dominant-baseline="text-before-edge">+deletePriceReduction(Long id)</text></g><g transform="translate(1193.0566716269811 712.8373015872958) rotate(0 205.390625 11.5)"><text x="0" y="0" font-family="Helvetica, Segoe UI Emoji" font-size="20px" fill="#1e1e1e" text-anchor="start" style="white-space: pre;" direction="ltr" dominant-baseline="text-before-edge">+findPriceReduction(Long id) : PriceReduction</text></g><g transform="translate(1193.0566716269811 745.8373015872958) rotate(0 233.73046875 11.5)"><text x="0" y="0" font-family="Helvetica, Segoe UI Emoji" font-size="20px" fill="#1e1e1e" text-anchor="start" style="white-space: pre;" direction="ltr" dominant-baseline="text-before-edge">+editPriceReduction(PriceReduction priceReduction)</text></g><g stroke-linecap="round"><g transform="translate(886.8327138131442 359.8177083333326) rotate(0 50.27771551406124 -69.15145287115035)"><path d="M0.37 1.14 C16.9 -21.78, 83.11 -114.19, 99.92 -137.58 M-0.89 0.69 C15.97 -22.56, 85.34 -116.15, 102.3 -139.32" stroke="#1e1e1e" stroke-width="2" fill="none"></path></g></g><mask></mask><g stroke-linecap="round"><g transform="translate(1014.0905257936477 1236.705517470727) rotate(0 96.02876567191898 33.319276470570315)"><path d="M-0.18 0.45 C31.7 11.4, 160.45 55.35, 192.3 66.27 M-1.74 -0.36 C29.93 10.71, 158.99 56.39, 191.48 67.62" stroke="#1e1e1e" stroke-width="2" fill="none"></path></g></g><mask></mask><g stroke-linecap="round"><g transform="translate(869.9580229608041 1448.6959544805154) rotate(0 0.10568426530073793 26.543506484623578)"><path d="M0.86 0.52 C0.89 8.99, -0.24 43.05, -0.35 51.99 M-0.15 -0.25 C-0.27 8.83, -1.52 44.17, -1.6 52.94" stroke="#1e1e1e" stroke-width="2" fill="none"></path></g></g><mask></mask></svg>