<svg version="1.1" xmlns="http://www.w3.org/2000/svg" viewBox="0 0 563.296875 253" width="563.296875" height="253">
  <!-- svg-source:excalidraw -->
  
  <defs>
    <style class="style-fonts">
      @font-face {
        font-family: "Virgil";
        src: url("https://excalidraw.com/Virgil.woff2");
      }
      @font-face {
        font-family: "Cascadia";
        src: url("https://excalidraw.com/Cascadia.woff2");
      }
      @font-face {
        font-family: "Assistant";
        src: url("https://excalidraw.com/Assistant-Regular.woff2");
      }
    </style>
    
  </defs>
  <rect x="0" y="0" width="563.296875" height="253" fill="#ffffff"></rect><g stroke-linecap="round" transform="translate(10 10) rotate(0 135.0546875 116.5)"><path d="M0 0 C90.1 -0.9, 183.18 -2.25, 270.11 0 M0 0 C76.9 -1.59, 155.22 -1.51, 270.11 0 M270.11 0 C271.7 49.48, 269.48 95.19, 270.11 233 M270.11 0 C269.11 77.46, 267.98 154.27, 270.11 233 M270.11 233 C187.12 236.07, 105.67 234.45, 0 233 M270.11 233 C215.05 233.59, 159.59 233.6, 0 233 M0 233 C-0.3 157.43, 0.42 83.25, 0 0 M0 233 C1.06 180.99, 0.1 127.95, 0 0" stroke="#1e1e1e" stroke-width="2" fill="none"></path></g><g stroke-linecap="round" transform="translate(330.109375 26.5) rotate(0 111.59375 100)"><path d="M0 0 C87.56 -1.6, 172.17 -2.63, 223.19 0 M0 0 C88.58 -0.54, 176.49 -1.18, 223.19 0 M223.19 0 C224.42 48.69, 225.54 99.4, 223.19 200 M223.19 0 C223.19 77.92, 224.01 156.16, 223.19 200 M223.19 200 C136.18 201.31, 50.83 202.7, 0 200 M223.19 200 C155.42 201.94, 88.45 201.29, 0 200 M0 200 C0.77 123.06, -0.94 46.52, 0 0 M0 200 C-1.52 137, -0.93 74.64, 0 0" stroke="#1e1e1e" stroke-width="2" fill="none"></path></g><g stroke-linecap="round"><g transform="translate(10 51) rotate(0 135.0546875 0)"><path d="M0 0 C96.72 -0.79, 195.35 -0.91, 270.11 0 M0 0 C96.25 -1.5, 193.57 -0.68, 270.11 0" stroke="#000" stroke-width="1" fill="none"></path></g></g><mask></mask><g stroke-linecap="round"><g transform="translate(10 67) rotate(0 135.0546875 0)"><path d="M0 0 C75.23 0.36, 148.33 1.72, 270.11 0 M0 0 C99.35 0.89, 199.98 -0.14, 270.11 0" stroke="#000" stroke-width="1" fill="none"></path></g></g><mask></mask><g stroke-linecap="round"><g transform="translate(330.109375 67.5) rotate(0 111.59375 0)"><path d="M0 0 C48.56 1.69, 96.28 0.23, 223.19 0 M0 0 C66.42 -2.19, 130.92 -1.65, 223.19 0" stroke="#000" stroke-width="1" fill="none"></path></g></g><mask></mask><g stroke-linecap="round"><g transform="translate(330.109375 83.5) rotate(0 111.59375 0)"><path d="M0 0 C47.02 -1.44, 91.57 -0.68, 223.19 0 M0 0 C88.48 0.87, 177.92 1.38, 223.19 0" stroke="#000" stroke-width="1" fill="none"></path></g></g><mask></mask><g transform="translate(118.671875 15) rotate(0 22.339981079101562 12.5)"><text x="0" y="0" font-family="Virgil, Segoe UI Emoji" font-size="20px" fill="#1e1e1e" text-anchor="start" style="white-space: pre;" direction="ltr" dominant-baseline="text-before-edge">User</text></g><g transform="translate(17.5 72) rotate(0 76.919921875 12.5)"><text x="0" y="0" font-family="Virgil, Segoe UI Emoji" font-size="20px" fill="#1e1e1e" text-anchor="start" style="white-space: pre;" direction="ltr" dominant-baseline="text-before-edge">+list products()</text></g><g transform="translate(17.5 105) rotate(0 93.59991455078125 12.5)"><text x="0" y="0" font-family="Virgil, Segoe UI Emoji" font-size="20px" fill="#1e1e1e" text-anchor="start" style="white-space: pre;" direction="ltr" dominant-baseline="text-before-edge">+create products()</text></g><g transform="translate(17.5 138) rotate(0 80.0199203491211 12.5)"><text x="0" y="0" font-family="Virgil, Segoe UI Emoji" font-size="20px" fill="#1e1e1e" text-anchor="start" style="white-space: pre;" direction="ltr" dominant-baseline="text-before-edge">+edit products()</text></g><g transform="translate(17.5 171) rotate(0 94.74990844726562 12.5)"><text x="0" y="0" font-family="Virgil, Segoe UI Emoji" font-size="20px" fill="#1e1e1e" text-anchor="start" style="white-space: pre;" direction="ltr" dominant-baseline="text-before-edge">+details products()</text></g><g transform="translate(17.5 204) rotate(0 114.72989654541016 12.5)"><text x="0" y="0" font-family="Virgil, Segoe UI Emoji" font-size="20px" fill="#1e1e1e" text-anchor="start" style="white-space: pre;" direction="ltr" dominant-baseline="text-before-edge">+deactivate products()</text></g><g transform="translate(404.671875 31.5) rotate(0 25.439979553222656 12.5)"><text x="0" y="0" font-family="Virgil, Segoe UI Emoji" font-size="20px" fill="#1e1e1e" text-anchor="start" style="white-space: pre;" direction="ltr" dominant-baseline="text-before-edge">Admin</text></g><g transform="translate(337.609375 88.5) rotate(0 77.66992950439453 12.5)"><text x="0" y="0" font-family="Virgil, Segoe UI Emoji" font-size="20px" fill="#1e1e1e" text-anchor="start" style="white-space: pre;" direction="ltr" dominant-baseline="text-before-edge">+create users()</text></g><g transform="translate(337.609375 121.5) rotate(0 75.46992492675781 12.5)"><text x="0" y="0" font-family="Virgil, Segoe UI Emoji" font-size="20px" fill="#1e1e1e" text-anchor="start" style="white-space: pre;" direction="ltr" dominant-baseline="text-before-edge">+delete users()</text></g><g transform="translate(337.609375 154.5) rotate(0 60.98993682861328 12.5)"><text x="0" y="0" font-family="Virgil, Segoe UI Emoji" font-size="20px" fill="#1e1e1e" text-anchor="start" style="white-space: pre;" direction="ltr" dominant-baseline="text-before-edge">+list users()</text></g><g transform="translate(337.609375 187.5) rotate(0 91.39990997314453 12.5)"><text x="0" y="0" font-family="Virgil, Segoe UI Emoji" font-size="20px" fill="#1e1e1e" text-anchor="start" style="white-space: pre;" direction="ltr" dominant-baseline="text-before-edge">+delete products()</text></g></svg>